# xmcd CD database file generated by Grip 3.3.1
# 
# Track frame offsets:
#       150
#       16930
#       34823
#       50550
#       68088
#       79138
#       96050
#       116400
#       124490
#       139323
# 
# Disc length: 2061 seconds
# 
# Revision: 4
# Processed by: cddbd v1.5.2PL0 Copyright (c) Steve Scherf et al.
# Submitted via: Grip 3.3.1
# 
DISCID=87080b0a
DTITLE=Janis Joplin - Pearl
DYEAR=1971
DGENRE=Classic Rock
TTITLE0=Move Over
TTITLE1=Cry Baby
TTITLE2=A Woman Left Lonely
TTITLE3=Half Moon
TTITLE4=Buried Alive in the Blues
TTITLE5=My Baby
TTITLE6=Me and Bobby McGee
TTITLE7=Mercedes Benz
TTITLE8=Trust Me
TTITLE9=Get It While You Can
EXTD=
EXTT0=
EXTT1=
EXTT2=
EXTT3=
EXTT4=
EXTT5=
EXTT6=
EXTT7=
EXTT8=
EXTT9=
PLAYORDER=
